<?xml version="1.0" standalone="no"?>
<!DOCTYPE svg PUBLIC "-//W3C//DTD SVG 20010904//EN"
 "http://www.w3.org/TR/2001/REC-SVG-20010904/DTD/svg10.dtd">
<svg version="1.0" xmlns="http://www.w3.org/2000/svg"
 width="1200.000000pt" height="864.000000pt" viewBox="0 0 1200.000000 864.000000"
 preserveAspectRatio="xMidYMid meet">

<g transform="translate(0.000000,864.000000) scale(0.100000,-0.100000)"
   fill="#000089" stroke="none">
<path d="M5733 8119 c3 -8 22 -51 42 -96 20 -45 47 -133 61 -195 24 -102 26
-127 21 -263 -6 -180 -29 -278 -87 -376 -44 -75 -116 -169 -129 -169 -4 0 -11
30 -14 66 -7 88 -53 179 -134 264 l-62 65 -1 -38 c0 -63 -30 -187 -60 -254
-16 -35 -67 -121 -113 -191 -160 -240 -193 -336 -191 -557 1 -124 4 -150 29
-225 81 -249 240 -431 454 -519 71 -30 121 -45 121 -36 0 2 -18 28 -40 57 -81
105 -140 261 -140 368 0 67 38 219 74 296 47 99 110 187 195 272 63 63 206
170 215 161 2 -2 -5 -40 -16 -84 -39 -157 -12 -335 66 -438 70 -92 151 -132
266 -131 78 0 142 20 234 74 37 22 71 40 74 40 10 0 -9 -167 -30 -255 -25
-107 -78 -238 -124 -307 l-34 -50 33 7 c69 15 192 69 261 116 183 122 310 318
357 551 56 270 -20 604 -192 848 l-53 75 -8 -35 c-49 -208 -151 -356 -311
-452 -72 -44 -82 -46 -66 -15 7 12 26 72 42 132 38 146 48 349 22 476 -44 221
-122 366 -280 525 -99 99 -247 203 -365 257 -101 46 -125 53 -117 36z"/>
<path d="M7229 6973 l-27 -4 26 -47 c14 -25 36 -73 48 -107 l22 -60 608 -1
609 0 3 -1025 c3 -1066 -2 -1266 -38 -1510 -62 -417 -219 -846 -441 -1200
-192 -306 -528 -656 -852 -888 l-89 -64 -36 21 c-21 11 -62 33 -91 49 -90 46
-132 95 -164 191 -32 98 -31 100 61 179 42 36 68 52 100 57 41 6 42 6 42 -23
0 -15 -10 -40 -21 -55 -34 -43 -16 -40 36 6 32 28 59 65 81 112 44 91 50 125
30 164 -25 48 -19 82 24 147 76 114 99 212 79 341 -19 124 -18 150 6 146 11
-2 28 -13 38 -25 l18 -22 -7 27 c-3 15 -7 49 -7 77 -2 47 -3 50 -37 60 -45 13
-93 60 -120 117 -20 39 -21 48 -9 76 11 27 14 29 20 12 6 -16 10 -13 25 21 29
65 31 232 5 329 -34 122 -64 174 -116 197 -44 20 -65 43 -65 73 0 32 -43 129
-72 162 -38 43 -174 110 -318 157 -66 21 -140 54 -198 90 -57 34 -112 59 -140
64 -71 12 -409 8 -477 -5 -159 -32 -360 -174 -441 -312 -38 -65 -44 -82 -44
-132 0 -40 -6 -67 -21 -93 -18 -30 -20 -47 -16 -108 2 -39 10 -97 18 -129 15
-67 6 -109 -41 -180 -42 -63 -92 -111 -154 -144 -43 -24 -63 -29 -123 -29 -88
0 -95 -15 -21 -41 47 -17 56 -25 79 -70 22 -44 26 -65 26 -140 0 -49 5 -109
11 -133 15 -62 5 -97 -38 -142 -27 -29 -45 -39 -68 -39 -45 0 -61 9 -79 44
-21 41 -29 17 -8 -27 27 -58 94 -73 165 -37 22 11 46 20 54 20 25 0 96 -90 96
-121 0 -40 -32 -69 -75 -69 -35 0 -55 13 -87 60 -17 24 -18 24 -32 6 -13 -16
-13 -22 -1 -46 8 -15 33 -42 55 -60 22 -17 40 -35 40 -38 0 -9 -50 -32 -70
-32 -9 0 -21 5 -28 12 -23 23 -25 -3 -4 -47 23 -48 66 -81 120 -91 17 -3 32
-10 32 -16 0 -13 -30 -70 -48 -90 -23 -27 -5 -22 42 12 23 17 58 33 78 36 34
6 38 3 66 -35 25 -34 60 -138 50 -146 -53 -37 -125 -65 -193 -75 -88 -12 -217
-50 -278 -81 l-38 -20 -67 57 c-196 168 -438 439 -566 634 -283 430 -430 843
-498 1400 -10 80 -13 376 -13 1244 l0 1138 612 -1 612 -2 11 43 c7 23 27 73
46 110 l34 68 -765 0 -765 0 -1 -1122 c-2 -1473 -4 -1356 32 -1608 39 -278 97
-511 187 -746 211 -552 533 -993 1013 -1391 266 -220 642 -439 974 -568 123
-47 423 -145 446 -145 31 0 447 148 559 199 408 185 696 373 1005 658 555 512
882 1122 1027 1923 l32 175 4 1313 3 1312 -718 0 c-395 0 -727 2 -738 4 -11 2
-32 1 -46 -1z m-1279 -2349 c27 -32 49 -36 79 -14 39 27 42 26 25 -15 -18 -44
-19 -40 13 -70 25 -23 26 -25 8 -25 -11 0 -34 4 -52 9 -21 6 -35 5 -43 -2 -10
-9 -14 -9 -17 1 -3 6 -13 12 -22 12 -28 0 -32 11 -10 29 20 16 20 19 6 54 -16
38 -9 49 13 21z m255 -329 c161 -21 245 -40 320 -74 111 -51 221 -176 197
-225 -6 -11 -13 -38 -17 -58 -8 -50 -31 -50 -87 2 -59 55 -92 67 -132 50 -17
-7 -85 -16 -151 -19 -86 -5 -129 -12 -153 -24 -30 -16 -32 -20 -26 -57 4 -25
0 -65 -11 -109 -18 -66 -18 -70 -1 -96 14 -22 20 -25 27 -14 5 8 9 22 9 33 0
10 9 34 21 52 17 28 25 33 46 28 17 -5 34 0 56 16 19 15 32 19 35 12 2 -6 12
-22 23 -36 22 -28 66 -35 86 -15 15 15 43 4 43 -15 0 -9 -12 -18 -27 -22 -16
-3 -32 -7 -38 -8 -5 -2 16 -6 47 -10 31 -4 62 -14 69 -22 6 -8 29 -14 51 -14
52 0 92 -22 108 -59 11 -28 10 -37 -14 -84 -17 -35 -48 -73 -86 -106 -63 -55
-73 -80 -44 -112 24 -27 28 -89 7 -129 -33 -64 -89 -71 -115 -14 -9 18 -19 24
-43 24 -18 0 -49 11 -69 25 -20 14 -45 25 -54 25 -10 0 -42 24 -71 54 -60 61
-81 63 -81 8 0 -25 8 -44 26 -63 33 -35 25 -49 -26 -42 -25 4 -46 1 -55 -7
-10 -8 -30 -10 -60 -6 -40 6 -49 4 -82 -23 -21 -16 -50 -33 -65 -36 -15 -4
-33 -14 -40 -23 -12 -13 -8 -15 35 -10 26 3 56 13 66 22 13 12 39 16 111 16
85 0 97 -2 132 -26 21 -15 38 -29 38 -33 -1 -15 -123 -57 -194 -66 -44 -6 -81
-15 -83 -22 -5 -15 68 -36 100 -28 52 13 211 -32 262 -75 27 -22 17 -55 -29
-98 -53 -49 -91 -69 -163 -88 -141 -37 -272 4 -309 97 -18 44 -27 47 -51 19
-26 -29 -44 -25 -91 23 -38 39 -42 47 -42 93 0 41 -5 55 -25 74 -14 13 -25 31
-25 41 0 9 -7 22 -15 29 -11 9 -15 29 -14 69 3 79 -21 169 -61 232 -77 119
-81 226 -13 398 34 88 42 197 17 237 -10 16 -25 34 -32 40 -12 8 -8 20 21 65
65 101 120 138 261 174 112 29 299 33 481 10z m195 -475 c0 -5 -4 -10 -10 -10
-5 0 -10 5 -10 10 0 6 5 10 10 10 6 0 10 -4 10 -10z m-1310 -241 c0 -25 -33
-22 -38 4 -2 12 3 17 17 17 15 0 21 -6 21 -21z m1746 -965 c20 -25 33 -48 30
-51 -8 -9 -96 77 -96 94 0 21 27 3 66 -43z m-477 -299 c25 -12 47 -42 39 -51
-2 -1 -21 13 -43 31 -43 37 -41 44 4 20z m-674 -35 c43 0 78 -19 95 -50 9 -16
6 -22 -19 -35 -30 -15 -31 -14 -71 24 -22 21 -55 42 -72 47 -17 5 -33 15 -35
21 -3 9 4 10 29 2 18 -5 51 -9 73 -9z m534 -20 c16 -22 21 -41 19 -68 l-4 -37
-22 49 c-12 27 -25 46 -29 43 -8 -8 -33 25 -27 35 11 17 42 6 63 -22z m-322 9
c30 -12 49 -16 124 -25 38 -5 52 -13 80 -46 19 -23 47 -56 62 -74 15 -18 31
-49 34 -68 5 -33 4 -35 -20 -32 -13 1 -47 17 -74 34 -27 18 -56 32 -64 32 -20
0 -95 47 -167 104 -60 48 -75 69 -33 46 21 -11 31 3 11 15 -15 9 -12 25 4 25
8 0 27 -5 43 -11z m-735 -163 c68 -73 165 -246 139 -246 -4 0 -48 50 -97 112
-105 133 -134 173 -134 188 0 16 59 -18 92 -54z m1572 -35 c32 -26 116 -140
116 -158 0 -12 -42 32 -101 104 -76 92 -79 105 -15 54z m-477 -27 c13 -21 23
-54 23 -73 0 -34 0 -34 -29 20 -15 30 -32 65 -36 78 -11 37 16 21 42 -25z m43
25 c0 -6 9 -30 20 -54 37 -82 46 -143 42 -280 -6 -163 -19 -138 -28 53 -6 112
-12 147 -31 190 -23 53 -31 118 -13 107 6 -3 10 -11 10 -16z m45 -26 l-7 -28
-9 24 c-12 31 -3 59 13 43 6 -6 8 -22 3 -39z m-659 -149 c40 -59 61 -153 50
-229 -9 -55 -17 -50 -40 25 -10 30 -32 91 -50 135 -57 137 -76 187 -76 199 0
15 71 -65 116 -130z m722 -49 l-1 -50 -7 55 c-4 30 -11 64 -15 75 -4 13 -1 12
9 -5 9 -14 15 -46 14 -75z m8 -194 c6 -35 4 -43 -7 -39 -9 3 -15 23 -17 54 -4
60 14 50 24 -15z"/>
<path d="M5568 3942 c-59 -58 -53 -66 47 -57 47 4 85 3 85 -2 0 -5 -16 -17
-36 -28 -35 -19 -134 -118 -134 -135 0 -16 29 -18 71 -6 36 11 45 18 47 40 3
26 25 35 37 16 3 -5 23 -10 44 -10 37 0 71 23 71 48 0 18 21 15 58 -8 40 -25
52 -25 52 -2 0 11 11 24 25 30 20 10 25 19 25 51 0 23 -8 48 -19 62 -18 23
-25 24 -148 24 -70 0 -141 3 -158 7 -26 5 -36 1 -67 -30z m178 -139 c-10 -10
-19 5 -10 18 6 11 8 11 12 0 2 -7 1 -15 -2 -18z"/>
<path d="M6102 3490 c-36 -33 -77 -39 -108 -15 -25 19 -64 19 -92 -1 -25 -18
-29 -59 -6 -68 23 -9 24 -8 21 17 -2 19 3 22 42 25 30 2 49 -2 62 -14 15 -13
30 -16 74 -11 48 5 59 3 84 -19 35 -29 108 -34 118 -7 10 27 -19 67 -55 74
-18 4 -43 16 -56 28 -30 28 -45 26 -84 -9z"/>
<path d="M5900 3275 c-7 -9 -8 -15 -2 -15 5 0 12 7 16 15 3 8 4 15 2 15 -2 0
-9 -7 -16 -15z"/>
<path d="M5816 3225 c-11 -8 -15 -15 -9 -15 6 0 16 7 23 15 16 19 11 19 -14 0z"/>
<path d="M5720 3151 c-5 -11 -10 -50 -10 -86 0 -58 2 -66 18 -63 14 3 17 15
17 86 0 83 -6 98 -25 63z"/>
<path d="M5044 5446 c-3 -7 -3 -64 -2 -127 l3 -114 1034 -3 1034 -2 -7 37 c-3
21 -6 80 -6 130 l0 92 -1026 0 c-787 -1 -1027 -4 -1030 -13z"/>
<path d="M9301 5130 c-42 -111 -55 -189 -41 -253 18 -87 90 -187 125 -174 25
10 73 96 85 153 21 98 -20 215 -111 321 l-28 32 -30 -79z"/>
<path d="M2803 5158 c-100 -143 -122 -228 -84 -329 20 -53 78 -129 99 -129 16
0 63 69 83 121 26 68 24 152 -5 241 -31 95 -49 138 -56 138 -4 0 -20 -19 -37
-42z"/>
<path d="M5328 5043 l-67 -4 9 -27 c5 -15 21 -66 35 -114 26 -87 26 -88 59
-88 48 0 91 17 181 72 153 92 309 125 549 115 100 -4 152 -11 219 -31 87 -26
187 -71 238 -107 30 -21 198 -69 241 -69 17 0 31 8 38 20 14 26 59 228 52 235
-6 5 -1444 3 -1554 -2z"/>
<path d="M2955 4640 c-71 -71 -134 -130 -139 -130 -5 0 -19 9 -30 19 -23 21
-286 191 -295 191 -4 0 -3 -50 1 -111 5 -90 10 -114 25 -125 10 -8 90 -64 178
-125 l160 -112 93 99 c51 55 109 117 127 140 l35 41 -13 121 -12 122 -130
-130z"/>
<path d="M9090 4723 c0 -21 -3 -74 -6 -119 l-7 -81 123 -136 122 -135 166 109
c92 61 174 122 183 137 11 18 19 63 23 131 l7 104 -48 -28 c-54 -31 -170 -111
-244 -168 l-49 -38 -33 37 c-42 49 -216 218 -228 222 -5 2 -9 -14 -9 -35z"/>
<path d="M3044 4273 c-39 -43 -89 -102 -113 -130 -24 -29 -49 -53 -54 -53 -10
0 -121 61 -270 146 -32 19 -63 34 -68 34 -25 0 18 -216 47 -237 11 -8 80 -47
154 -88 74 -41 148 -83 164 -94 l29 -19 71 91 c39 51 79 101 89 112 11 11 30
35 44 52 l25 33 -17 115 c-10 63 -21 115 -25 115 -4 0 -38 -35 -76 -77z"/>
<path d="M9060 4345 c0 -6 -9 -62 -19 -125 l-19 -114 72 -81 c39 -44 91 -104
115 -132 24 -29 48 -53 54 -53 5 0 31 13 56 29 25 16 91 53 147 83 160 85 153
77 171 201 9 59 13 110 10 113 -3 3 -48 -17 -99 -44 -51 -28 -104 -57 -118
-64 -14 -7 -46 -28 -72 -45 l-46 -33 -85 98 c-98 111 -167 180 -167 167z"/>
<path d="M8951 3858 c-27 -169 -34 -142 70 -303 52 -79 101 -144 108 -144 8
-1 76 28 150 62 75 35 162 75 193 88 l57 24 15 70 c35 154 36 166 14 159 -14
-4 -294 -138 -339 -162 -4 -1 -24 21 -45 50 -22 29 -55 71 -74 94 -19 23 -54
65 -78 93 -24 28 -46 51 -51 51 -4 0 -13 -37 -20 -82z"/>
<path d="M3129 3848 c-39 -46 -89 -108 -111 -139 l-40 -56 -141 64 c-78 35
-159 73 -180 84 -47 23 -46 23 -42 2 2 -10 12 -62 21 -116 l18 -99 95 -44
c174 -82 312 -137 320 -128 5 5 50 71 100 147 l93 137 -17 65 c-9 36 -19 88
-22 115 -3 28 -10 50 -14 50 -5 0 -40 -37 -80 -82z"/>
<path d="M3257 3498 c-25 -35 -66 -100 -92 -146 -27 -45 -52 -85 -56 -87 -4
-3 -89 24 -190 60 -100 36 -184 64 -186 62 -2 -2 14 -53 35 -113 l38 -109 199
-77 c109 -43 200 -78 201 -78 5 0 174 309 174 319 0 15 -70 231 -75 231 -2 0
-24 -28 -48 -62z"/>
<path d="M8836 3449 c-20 -55 -36 -106 -36 -114 0 -7 17 -42 38 -76 21 -35 55
-95 76 -134 20 -38 44 -80 54 -93 l18 -23 134 54 c74 30 160 62 190 72 30 9
60 22 66 29 17 16 84 226 73 226 -5 0 -85 -27 -177 -61 -92 -33 -174 -63 -183
-66 -12 -3 -26 11 -50 54 -42 74 -151 233 -160 233 -4 0 -23 -45 -43 -101z"/>
<path d="M3365 3032 c-44 -86 -81 -158 -82 -160 0 -2 -85 17 -188 43 -103 25
-190 45 -195 43 -10 -4 65 -188 83 -204 12 -11 383 -114 410 -114 8 0 28 30
45 68 100 222 113 255 106 275 -8 28 -92 207 -96 207 -2 0 -39 -71 -83 -158z"/>
<path d="M8684 3093 c-58 -122 -59 -127 -35 -170 11 -21 29 -58 40 -83 63
-145 91 -200 103 -200 21 0 328 78 374 95 39 15 43 21 83 115 24 55 41 103 39
108 -1 4 -84 -13 -183 -40 -99 -26 -185 -48 -192 -48 -6 0 -42 58 -79 129 -36
71 -76 141 -88 156 l-21 26 -41 -88z"/>
<path d="M3608 2793 c-9 -27 -37 -102 -61 -168 l-44 -120 -34 1 c-19 0 -108
12 -199 27 -91 14 -167 24 -169 22 -3 -3 98 -191 114 -213 1 -1 51 -9 111 -17
60 -7 156 -21 213 -29 57 -9 105 -15 107 -13 1 1 27 77 58 170 l57 168 -57 97
c-79 133 -77 132 -96 75z"/>
<path d="M8540 2812 c0 -5 -25 -49 -56 -98 -35 -57 -54 -96 -51 -109 5 -23
109 -318 114 -324 2 -3 51 3 111 12 59 10 145 22 192 27 47 6 94 12 105 15 14
3 39 40 78 115 32 60 56 110 53 110 -4 0 -86 -13 -183 -30 -206 -35 -212 -35
-219 -12 -13 40 -107 267 -117 284 -12 19 -27 24 -27 10z"/>
<path d="M3827 2448 c-9 -35 -28 -114 -42 -177 -14 -63 -27 -116 -30 -119 -2
-2 -93 1 -201 7 -108 6 -199 9 -201 7 -4 -4 15 -31 106 -152 l38 -51 194 -6
c107 -4 204 -10 216 -13 28 -8 26 -17 83 315 l9 54 -72 98 c-39 54 -75 98 -78
99 -3 0 -13 -28 -22 -62z"/>
<path d="M8262 2407 c-39 -50 -72 -100 -72 -111 0 -16 22 -124 61 -298 l11
-48 209 0 209 0 41 53 c23 28 60 78 81 111 l40 58 -88 -6 c-49 -3 -141 -8
-205 -12 l-117 -6 -20 84 c-36 150 -64 253 -71 260 -4 4 -39 -34 -79 -85z"/>
<path d="M4091 2072 c-21 -253 -19 -241 -55 -246 -32 -5 -327 -29 -358 -30
-10 0 -18 -3 -18 -7 0 -3 37 -45 83 -93 l83 -87 59 5 c33 3 116 11 185 17 69
6 143 14 165 18 l40 6 3 188 2 187 -88 90 -89 90 -12 -138z"/>
<path d="M8001 2120 c-44 -39 -83 -80 -87 -92 -3 -11 -3 -101 1 -199 l7 -178
52 -5 c28 -3 128 -12 221 -21 l170 -16 63 67 c35 37 72 80 83 96 l20 28 -23 0
c-13 0 -99 7 -193 15 -93 8 -175 15 -180 15 -6 0 -18 75 -29 180 -10 99 -20
180 -22 180 -2 0 -39 -32 -83 -70z"/>
<path d="M4414 1790 c4 -74 9 -160 12 -192 l6 -56 -73 -15 c-156 -32 -295 -57
-321 -57 -16 0 -28 -2 -28 -4 0 -8 108 -107 148 -137 l39 -28 129 19 c156 24
284 49 303 60 11 6 14 25 12 71 -3 70 -28 310 -33 313 -7 5 -164 130 -182 145
-18 16 -19 13 -12 -119z"/>
<path d="M7666 1824 l-96 -77 0 -51 c0 -28 -5 -111 -11 -184 -7 -73 -9 -135
-7 -138 5 -5 105 -22 345 -59 l112 -17 90 78 c50 44 91 81 91 84 0 5 -251 48
-388 67 l-34 4 3 179 c2 99 0 182 -3 185 -3 3 -49 -29 -102 -71z"/>
<path d="M7415 1648 c-41 -22 -183 -117 -188 -125 -6 -9 -69 -336 -71 -367 -1
-22 -12 -18 214 -80 242 -67 210 -68 324 13 54 39 101 73 103 75 3 3 -12 9
-33 14 -117 28 -354 91 -364 97 -4 2 -2 37 5 77 14 80 38 299 33 304 -2 1 -12
-2 -23 -8z"/>
<path d="M4755 1593 c3 -32 16 -116 27 -186 11 -71 18 -130 16 -132 -1 -1 -95
-27 -207 -57 l-205 -55 110 -72 c66 -43 115 -69 124 -65 8 3 105 29 215 57
110 27 201 51 202 52 2 1 -4 37 -12 80 -8 43 -24 127 -35 187 -10 60 -24 116
-31 124 -15 19 -185 124 -200 124 -8 0 -9 -17 -4 -57z"/>
<path d="M5120 1417 c0 -25 55 -228 101 -375 4 -12 -195 -94 -336 -138 -30
-10 -55 -20 -55 -23 1 -9 207 -121 222 -121 7 0 54 15 103 34 50 19 140 53
200 76 61 23 114 45 118 49 4 4 3 21 -4 37 -6 16 -37 106 -69 199 l-57 170
-112 56 c-96 48 -111 53 -111 36z"/>
<path d="M6951 1377 c-80 -40 -106 -58 -112 -77 -4 -14 -33 -106 -63 -204 -31
-98 -55 -180 -54 -181 3 -3 220 -86 361 -138 l58 -22 76 40 c42 22 92 50 111
62 l36 21 -39 17 c-22 9 -107 41 -190 72 -82 30 -153 58 -157 62 -4 3 9 65 29
136 20 72 42 152 49 180 16 55 18 85 7 85 -5 0 -55 -24 -112 -53z"/>
<path d="M5923 898 c-92 -61 -170 -113 -172 -115 -4 -2 74 -187 85 -202 2 -2
29 17 61 41 79 61 190 138 199 138 3 0 59 -37 123 -81 63 -45 121 -83 127 -86
6 -2 30 37 54 93 40 92 41 97 24 107 -11 6 -88 57 -172 114 -84 57 -155 103
-157 103 -2 0 -79 -50 -172 -112z"/>
</g>
</svg>
